<?xml version="1.0" standalone="no"?>
<!DOCTYPE svg PUBLIC "-//W3C//DTD SVG 20010904//EN"
 "http://www.w3.org/TR/2001/REC-SVG-20010904/DTD/svg10.dtd">
<svg version="1.0" xmlns="http://www.w3.org/2000/svg"
 width="500.000000pt" height="500.000000pt" viewBox="0 0 500.000000 500.000000"
 preserveAspectRatio="xMidYMid meet">

<g transform="translate(0.000000,500.000000) scale(0.100000,-0.100000)"
fill="#000000" stroke="none">
<path d="M2340 4100 c0 -5 -18 -10 -39 -10 -22 0 -42 -4 -45 -9 -3 -4 -36 -11
-73 -14 -37 -4 -69 -11 -71 -17 -2 -5 -19 -10 -38 -10 -19 0 -34 -4 -34 -10 0
-5 -17 -12 -37 -16 -21 -4 -40 -10 -43 -13 -9 -12 -78 -41 -97 -41 -10 0 -24
-9 -30 -19 -7 -11 -26 -22 -43 -26 -16 -4 -30 -10 -30 -15 0 -4 -8 -10 -17
-14 -23 -7 -50 -25 -82 -53 -14 -13 -30 -23 -34 -23 -5 0 -23 -16 -41 -35 -19
-19 -38 -35 -43 -35 -13 0 -107 -93 -142 -140 -14 -19 -33 -42 -41 -50 -24
-24 -100 -137 -100 -149 0 -6 -4 -11 -9 -11 -11 0 -101 -181 -101 -203 0 -9
-4 -19 -10 -22 -5 -3 -10 -17 -10 -31 0 -13 -4 -24 -9 -24 -5 0 -12 -20 -15
-45 -4 -24 -11 -47 -17 -50 -5 -4 -9 -21 -9 -39 0 -17 -6 -38 -12 -44 -10 -10
-13 -81 -13 -284 0 -208 3 -272 13 -275 7 -3 12 -21 12 -43 0 -21 4 -41 9 -44
5 -4 12 -25 16 -48 4 -23 11 -50 16 -60 5 -10 14 -27 19 -38 6 -11 10 -25 10
-31 0 -12 23 -68 46 -111 8 -14 14 -33 14 -42 0 -9 4 -16 8 -16 5 0 17 -17 28
-37 10 -21 29 -51 42 -68 39 -53 58 -82 71 -110 5 -11 30 -40 55 -65 25 -24
46 -49 46 -55 0 -7 11 -17 25 -23 14 -6 25 -18 25 -27 0 -8 5 -15 10 -15 6 0
18 -8 28 -17 50 -48 92 -83 101 -83 5 0 18 -11 28 -23 19 -24 78 -63 146 -94
20 -10 37 -21 37 -25 0 -5 5 -8 11 -8 6 0 25 -6 42 -14 18 -8 47 -20 65 -27
l32 -14 0 -97 c0 -54 4 -98 9 -98 5 0 12 -11 15 -25 4 -15 16 -27 31 -31 14
-3 25 -10 25 -15 0 -5 14 -9 30 -9 17 0 30 4 30 9 0 5 11 12 24 15 21 5 26 14
32 62 11 88 0 269 -17 286 -27 25 -68 48 -89 48 -11 0 -20 4 -20 10 0 5 -17
12 -37 16 -21 4 -40 10 -43 13 -6 9 -75 41 -87 41 -5 0 -15 9 -23 20 -8 10
-26 22 -41 25 -14 3 -36 17 -48 30 -11 14 -26 25 -32 25 -6 0 -25 16 -43 35
-19 19 -37 35 -42 35 -12 0 -134 123 -134 134 0 5 -15 23 -34 40 -18 18 -37
42 -40 54 -4 12 -11 22 -16 22 -4 0 -10 8 -14 18 -6 17 -27 53 -37 62 -8 8
-39 77 -39 89 0 6 -3 11 -8 11 -8 0 -42 73 -42 90 0 6 -4 10 -10 10 -5 0 -10
11 -10 24 0 13 -5 26 -11 28 -6 2 -13 25 -16 51 -3 26 -10 47 -14 47 -5 0 -9
13 -9 28 0 15 -6 34 -12 40 -10 10 -13 79 -13 277 0 198 3 267 13 276 6 7 12
23 12 36 0 13 5 23 10 23 6 0 10 12 10 28 0 15 7 40 15 56 8 15 15 37 15 47 0
11 4 19 10 19 5 0 12 17 16 38 4 20 15 44 25 53 10 8 21 27 24 42 4 15 11 27
16 27 5 0 9 9 9 19 0 10 7 21 15 25 8 3 15 12 15 19 0 8 9 22 20 32 11 10 20
23 20 28 0 6 18 27 40 48 22 21 40 43 40 48 0 13 87 101 99 101 5 0 11 7 15
15 3 8 11 15 18 15 7 0 22 11 32 25 10 14 24 25 31 25 6 0 20 9 30 20 10 11
24 20 32 20 7 0 16 7 19 15 4 8 15 15 25 15 10 0 19 4 19 9 0 5 14 12 30 16
17 4 30 10 30 13 0 8 74 42 90 42 6 0 10 5 10 10 0 6 16 10 35 10 19 0 35 4
35 9 0 5 25 13 55 16 30 4 58 11 61 16 3 5 23 9 45 9 21 0 39 5 39 10 0 6 72
10 195 10 123 0 195 -4 195 -10 0 -5 23 -10 50 -10 28 0 50 -4 50 -9 0 -4 23
-11 52 -14 28 -4 56 -11 62 -17 5 -5 20 -10 33 -10 13 0 23 -4 23 -10 0 -5 9
-10 19 -10 11 0 46 -13 78 -30 31 -16 63 -30 70 -30 7 0 13 -4 13 -9 0 -5 8
-11 18 -15 24 -8 54 -28 73 -48 9 -10 21 -18 27 -18 6 0 22 -11 36 -25 14 -14
29 -25 33 -25 11 0 183 -173 183 -184 0 -5 14 -22 30 -38 17 -15 30 -34 30
-41 0 -7 9 -19 20 -27 10 -8 22 -27 25 -42 4 -15 10 -28 14 -28 11 0 41 -57
41 -79 0 -12 5 -21 10 -21 6 0 10 -9 10 -20 0 -11 4 -20 10 -20 5 0 13 -18 16
-40 4 -22 10 -40 15 -40 5 0 9 -11 9 -25 0 -14 4 -25 9 -25 5 0 13 -29 16 -65
4 -36 11 -65 16 -65 12 0 12 -437 0 -444 -4 -3 -11 -40 -15 -83 -3 -43 -11
-79 -16 -81 -6 -2 -10 -15 -10 -28 0 -13 -4 -24 -10 -24 -5 0 -10 -9 -10 -21
0 -21 -28 -89 -40 -99 -4 -3 -10 -20 -13 -39 -4 -18 -15 -41 -26 -50 -10 -9
-22 -27 -26 -41 -4 -14 -16 -32 -25 -40 -9 -8 -20 -25 -24 -37 -4 -13 -12 -23
-17 -23 -5 0 -9 -6 -9 -13 0 -7 -16 -28 -35 -47 -19 -19 -35 -38 -35 -43 0
-11 -136 -147 -148 -147 -4 0 -23 -16 -42 -35 -19 -19 -40 -35 -47 -35 -8 0
-16 -7 -19 -15 -4 -8 -15 -15 -25 -15 -10 0 -19 -5 -19 -10 0 -6 -18 -18 -40
-27 -22 -10 -40 -21 -40 -25 0 -5 -4 -8 -10 -8 -16 0 -90 -34 -90 -42 0 -4
-17 -10 -37 -14 -21 -4 -40 -10 -43 -13 -8 -10 -44 -31 -62 -37 -10 -4 -18
-13 -18 -20 0 -8 -9 -19 -20 -26 -18 -12 -20 -24 -20 -137 0 -118 1 -126 26
-158 23 -30 30 -33 77 -33 40 0 57 5 70 20 9 11 17 25 17 30 0 6 5 10 10 10 6
0 10 40 10 100 0 82 3 100 15 100 8 0 15 3 15 8 0 10 75 42 98 42 9 0 23 9 29
19 7 11 25 22 41 25 15 4 34 16 42 26 8 11 19 20 26 20 6 0 30 13 52 30 23 16
44 30 47 30 3 0 27 23 54 50 27 28 54 50 60 50 6 0 11 6 11 14 0 8 9 18 20 21
11 3 20 11 20 17 0 6 18 28 40 49 22 21 40 43 40 48 0 6 15 25 33 43 35 36 54
63 63 91 4 9 10 17 14 17 4 0 15 18 26 40 10 22 22 40 27 40 4 0 7 7 7 16 0
18 31 77 43 82 4 2 7 11 7 21 0 9 7 26 15 37 8 10 15 29 15 42 0 12 4 22 9 22
5 0 12 20 15 45 4 24 11 47 17 50 5 4 9 17 9 31 0 13 4 24 9 24 5 0 12 41 15
90 4 50 12 90 17 90 12 0 12 367 0 374 -5 3 -12 42 -16 86 -4 44 -11 80 -16
80 -5 0 -9 11 -9 24 0 14 -4 27 -9 30 -5 4 -12 25 -16 49 -4 23 -10 44 -14 47
-10 8 -31 49 -31 61 0 18 -70 156 -85 169 -8 6 -16 24 -20 39 -3 15 -17 35
-30 45 -14 10 -25 24 -25 31 0 6 -11 22 -25 35 -14 13 -25 28 -25 33 0 13
-184 197 -197 197 -5 0 -20 11 -33 25 -13 14 -28 25 -33 25 -5 0 -17 8 -26 18
-20 21 -39 33 -121 73 -36 18 -66 36 -68 41 -2 4 -10 8 -19 8 -15 0 -74 29
-83 42 -3 3 -26 9 -52 13 -27 4 -48 11 -48 16 0 5 -13 9 -28 9 -15 0 -32 4
-38 10 -5 5 -38 13 -72 16 -34 4 -62 11 -62 15 0 5 -20 9 -45 9 -25 0 -45 5
-45 10 0 6 -60 10 -160 10 -100 0 -160 -4 -160 -10z"/>
<path d="M2310 3701 c0 -4 -28 -12 -61 -15 -55 -7 -95 -20 -109 -37 -3 -3 -22
-9 -42 -13 -21 -4 -38 -10 -38 -14 0 -8 -74 -42 -90 -42 -6 0 -10 -4 -10 -9 0
-5 -8 -12 -17 -15 -36 -13 -74 -38 -80 -52 -3 -8 -11 -14 -19 -14 -13 0 -139
-124 -184 -183 -14 -17 -32 -45 -40 -62 -8 -16 -18 -32 -22 -35 -16 -13 -109
-208 -114 -242 -4 -21 -10 -38 -15 -38 -5 0 -9 -22 -9 -48 0 -26 -6 -54 -12
-61 -17 -16 -16 -347 1 -364 6 -6 11 -28 11 -49 0 -21 4 -38 9 -38 5 0 12 -22
16 -50 4 -27 10 -50 13 -50 8 0 32 -49 32 -63 0 -12 32 -81 41 -87 3 -3 10
-16 14 -30 8 -24 34 -62 75 -107 11 -12 20 -26 20 -31 0 -12 180 -192 192
-192 13 0 80 -61 136 -124 12 -14 31 -26 42 -26 10 0 22 -5 25 -10 8 -13 45
-13 45 0 0 6 10 10 23 10 12 0 31 10 42 23 28 31 28 125 1 152 -25 26 -63 45
-90 46 -11 0 -34 9 -51 20 -16 10 -37 22 -45 26 -8 4 -24 17 -36 30 -12 13
-26 23 -33 23 -6 0 -11 7 -11 15 0 8 -5 15 -11 15 -13 0 -59 41 -59 54 0 5
-15 23 -34 40 -18 18 -37 42 -40 54 -4 12 -11 22 -16 22 -4 0 -10 8 -14 18 -6
17 -27 53 -37 62 -8 8 -39 77 -39 89 0 6 -4 11 -10 11 -5 0 -10 10 -10 23 0
13 -4 27 -10 33 -5 5 -13 45 -16 87 -4 43 -11 80 -15 83 -12 7 -12 211 0 218
4 3 12 42 15 86 4 44 12 80 17 80 5 0 9 11 9 25 0 14 5 25 10 25 6 0 10 4 10
10 0 16 34 90 42 90 3 0 9 13 13 29 3 16 15 37 26 47 10 9 19 23 19 31 0 7 7
16 15 19 8 4 15 12 15 18 0 15 138 156 152 156 5 0 19 10 31 23 12 12 39 31
60 42 20 11 37 23 37 27 0 5 9 8 20 8 11 0 20 4 20 9 0 5 18 11 40 15 23 3 49
10 58 15 69 35 77 36 285 36 159 0 211 -3 214 -12 3 -7 20 -13 39 -13 19 0 34
-4 34 -10 0 -5 17 -12 38 -16 20 -4 39 -10 42 -13 3 -4 22 -16 43 -27 73 -36
77 -39 77 -46 0 -5 5 -8 11 -8 25 0 219 -171 219 -193 0 -5 11 -23 25 -41 14
-17 29 -35 33 -41 13 -16 42 -82 42 -94 0 -6 5 -11 10 -11 6 0 10 -11 10 -25
0 -14 4 -25 10 -25 5 0 13 -18 16 -40 4 -22 10 -40 15 -40 5 0 9 -15 9 -34 0
-19 5 -38 10 -41 6 -4 10 -70 10 -165 0 -95 -4 -161 -10 -165 -5 -3 -10 -22
-10 -41 0 -19 -4 -34 -10 -34 -5 0 -10 -12 -10 -27 0 -16 -11 -49 -24 -76 -14
-26 -27 -61 -31 -77 -4 -17 -11 -30 -16 -30 -5 0 -9 -9 -9 -19 0 -10 -7 -21
-15 -25 -8 -3 -15 -11 -15 -19 0 -7 -16 -28 -35 -47 -19 -19 -35 -38 -35 -43
0 -11 -106 -117 -117 -117 -5 0 -24 -16 -43 -35 -18 -19 -46 -37 -62 -40 -15
-4 -28 -11 -28 -16 0 -5 -16 -9 -35 -9 -19 0 -35 -5 -35 -10 0 -6 -11 -15 -25
-20 -14 -5 -25 -17 -25 -25 0 -9 -7 -18 -15 -21 -9 -4 -15 -19 -15 -40 0 -26
9 -43 36 -69 20 -19 43 -35 53 -35 9 0 23 -6 30 -12 11 -10 14 -10 18 0 3 6
14 12 26 12 21 0 77 46 77 63 0 13 41 46 80 64 23 10 230 215 241 238 12 26
31 56 47 73 6 7 12 19 12 25 0 7 9 18 19 24 11 7 22 26 26 43 4 16 10 30 14
30 6 0 25 60 38 123 3 15 9 27 13 27 8 0 24 76 21 97 -1 6 3 14 9 18 5 3 10
30 10 60 0 30 5 57 10 60 6 3 10 50 10 106 0 59 -4 99 -10 99 -5 0 -10 22 -10
49 0 28 -4 52 -9 55 -5 3 -12 31 -16 61 -3 31 -13 68 -21 83 -7 15 -14 32 -14
38 0 15 -24 64 -32 64 -3 0 -9 13 -13 29 -3 16 -15 37 -25 46 -10 9 -22 29
-25 44 -3 15 -17 35 -30 45 -14 10 -25 24 -25 30 0 14 -171 186 -185 186 -6 0
-17 9 -25 20 -8 11 -20 20 -26 20 -7 0 -19 6 -26 13 -15 15 -81 47 -97 47 -6
0 -11 3 -11 8 0 8 -73 42 -90 42 -10 0 -23 5 -68 29 -12 6 -49 14 -82 18 -33
3 -60 10 -60 14 0 5 -83 9 -185 9 -102 0 -185 -4 -185 -9z"/>
<path d="M2350 3321 c-51 -27 -61 -31 -72 -31 -18 0 -138 -62 -138 -72 0 -4
-6 -8 -13 -8 -16 0 -147 -131 -147 -148 0 -6 -9 -17 -20 -24 -11 -7 -20 -17
-20 -21 0 -11 -32 -80 -40 -87 -9 -8 -31 -99 -37 -152 -3 -27 -9 -48 -14 -48
-12 0 -11 -147 1 -155 6 -3 10 -24 10 -45 0 -21 4 -41 9 -44 5 -3 12 -31 16
-61 3 -30 10 -55 13 -55 8 0 42 -74 42 -90 0 -6 3 -10 8 -10 8 0 42 -72 43
-93 1 -24 36 -71 65 -88 16 -10 47 -18 69 -18 35 0 44 5 74 42 28 35 32 47 28
80 -5 37 -40 87 -60 87 -26 0 -97 104 -97 143 0 9 -4 19 -10 22 -5 3 -10 17
-10 30 0 13 -6 25 -12 28 -10 3 -13 43 -13 157 0 114 3 154 13 158 6 2 12 15
12 28 0 13 5 24 10 24 6 0 10 5 10 11 0 11 29 77 42 94 31 43 83 95 94 95 8 0
14 4 14 10 0 5 16 16 35 25 19 8 50 22 69 30 19 8 50 15 70 15 20 0 36 5 36
10 0 6 30 10 69 10 39 0 73 -4 76 -10 3 -5 21 -10 40 -10 51 0 153 -57 223
-124 62 -60 132 -175 132 -217 0 -10 5 -21 10 -24 12 -8 14 -255 1 -255 -4 0
-11 -22 -14 -49 -6 -48 -19 -81 -44 -109 -7 -7 -13 -18 -13 -24 0 -11 -60 -68
-72 -68 -5 0 -17 -9 -28 -20 -15 -15 -20 -33 -20 -75 0 -62 20 -95 57 -95 13
0 23 -4 23 -10 0 -5 9 -10 19 -10 11 0 23 5 26 10 3 6 14 10 23 10 31 1 64 38
69 80 3 22 16 50 28 62 12 13 28 38 36 56 8 17 17 32 21 32 4 0 11 18 14 40 4
22 10 40 15 40 5 0 9 13 9 28 0 15 6 34 12 40 18 18 18 338 1 375 -24 50 -32
72 -38 105 -4 17 -10 32 -13 32 -4 0 -16 18 -26 40 -11 22 -22 40 -26 40 -4 0
-15 15 -25 33 -9 17 -44 52 -76 77 -32 25 -58 48 -59 53 0 4 -4 7 -10 7 -16 0
-90 34 -90 42 0 4 -16 10 -35 14 -19 3 -38 10 -41 15 -3 5 -16 9 -30 9 -13 0
-24 5 -24 10 0 12 -277 13 -300 1z"/>
<path d="M2450 2920 c-8 -4 -31 -15 -50 -24 -35 -15 -77 -52 -81 -71 -7 -34
-12 -45 -20 -45 -16 0 -10 -125 7 -158 8 -18 20 -32 25 -32 5 0 9 -7 9 -16 0
-18 38 -53 58 -54 6 0 12 -5 12 -11 0 -6 9 -9 20 -6 11 3 23 1 26 -4 7 -13 91
-11 99 2 4 6 13 8 20 5 7 -2 21 4 31 15 9 10 23 19 31 19 7 0 16 8 20 18 3 9
15 27 27 40 18 20 21 36 21 113 0 53 -4 93 -11 97 -6 4 -14 15 -17 25 -4 11
-16 21 -27 24 -11 3 -20 9 -20 14 0 4 -17 15 -37 24 -21 9 -46 21 -55 26 -22
11 -68 11 -88 -1z"/>
<path d="M2458 2303 c-10 -2 -18 -13 -18 -24 0 -10 -4 -19 -8 -19 -5 0 -10 -8
-12 -17 -2 -10 -5 -337 -6 -728 -2 -482 -6 -711 -14 -713 -5 -2 -10 -26 -10
-54 0 -42 5 -54 31 -80 53 -54 157 -48 181 9 6 16 11 31 10 36 -1 4 3 7 8 7
15 0 11 42 -5 64 -13 17 -15 121 -15 733 0 469 -3 713 -10 713 -5 0 -10 6 -10
13 0 7 -13 25 -28 40 -27 26 -53 31 -94 20z"/>
</g>
</svg>
